<svg aria-hidden="true" style="position: absolute; width: 0; height: 0; overflow: hidden;" version="1.1" xmlns="http://www.w3.org/2000/svg" xmlns:xlink="http://www.w3.org/1999/xlink">
<defs>
<symbol id="odigo-logo" viewBox="0 0 85 32">
<path d="M84.086 12.475c-0.379-1.207-0.905-2.298-1.645-3.25-0.741-0.953-1.645-1.641-2.715-2.158-0.282-0.16-0.61-0.299-0.954-0.402l-0.034-0.009s-0.116-0.066-0.222-0.066c-0.050 0-0.107 0-0.165-0.057-0.041 0-0.098 0-0.098-0.058l-0.781-0.164c-0.576-0.098-1.317-0.148-2.173-0.098-1.267 0.057-2.386 0.328-3.372 0.788-1.073 0.538-1.977 1.262-2.704 2.137l-0.011 0.014c-0.741 0.952-1.268 1.994-1.646 3.258-0.361 1.198-0.526 2.561-0.526 3.924 0 1.42 0.165 2.733 0.535 3.939 0.391 1.224 0.951 2.287 1.665 3.227l-0.019-0.026c0.525 0.62 1.12 1.156 1.78 1.605l0.031 0.020c0.313 0.214 0.576 0.37 0.905 0.526h0.041s0.049 0 0.049 0.049c0.035 0 0.052 0.017 0.067 0.031 0.013 0.014 0.026 0.027 0.049 0.027 0.535 0.262 1.119 0.41 1.752 0.525 1.852 0.361 3.439 0.106 3.439 0.106 0.847-0.107 1.645-0.37 2.387-0.69 1.093-0.526 2.013-1.251 2.745-2.137l0.011-0.013c0.74-0.887 1.267-1.994 1.645-3.2 0.361-1.208 0.526-2.521 0.526-3.94 0-1.412-0.214-2.725-0.535-3.94l-0.025 0.033zM71.686 13.624c0.215-0.821 0.478-1.617 0.847-2.248 0.371-0.623 0.847-1.149 1.374-1.51 0.514-0.36 1.152-0.575 1.84-0.575 0.004 0 0.008 0 0.013 0h-0.001c0.692 0 1.275 0.148 1.81 0.517 0.526 0.361 0.947 0.821 1.317 1.412 0.37 0.632 0.641 1.313 0.846 2.15 0.223 0.836 0.33 1.683 0.33 2.626v0.312c0 0.943-0.107 1.888-0.264 2.725-0.214 0.845-0.477 1.575-0.846 2.215-0.356 0.589-0.82 1.078-1.368 1.451l-0.016 0.010c-0.526 0.37-1.152 0.525-1.851 0.525-0.692 0-1.316-0.165-1.851-0.526-0.567-0.385-1.032-0.879-1.372-1.455l-0.011-0.021c-0.378-0.625-0.641-1.354-0.855-2.2-0.206-0.837-0.264-1.782-0.264-2.725 0.058-0.902 0.165-1.837 0.33-2.676l-0.009-0.008zM60.077 26.542l-2.057 2.356-0.214 0.212 0.214 2.89h3.176l3.34-3.726v-11.85l-0.099-0.903-4.36 2.248v8.774z"></path>
<path d="M33.32 5.39l-2.078-2.29-0.275-0.195 0.217-2.906 3.2 0.049 3.442 3.685v11.991l-0.1 0.666-4.406-2.273v-8.727zM62.812 8.613c0.749 0.941 1.281 2.021 1.664 3.214l0.017-0.032c0.374 1.201 0.54 2.5 0.54 3.896 0 1.404-0.166 2.705-0.532 3.897-0.382 1.193-0.915 2.29-1.662 3.166-0.753 0.893-1.682 1.611-2.737 2.106l-0.049 0.021c-0.747 0.317-1.554 0.577-2.41 0.682 0 0-1.604 0.252-3.475-0.105-0.64-0.114-1.23-0.26-1.762-0.519-0.031 0-0.044-0.015-0.059-0.031-0.012-0.013-0.025-0.027-0.050-0.027 0-0.049-0.058-0.049-0.058-0.049h-0.041c-0.353-0.165-0.653-0.338-0.936-0.533l0.022 0.014c-0.696-0.465-1.297-0.996-1.82-1.596l-0.009-0.011c-0.701-0.903-1.266-1.954-1.641-3.092l-0.021-0.074c-0.366-1.193-0.533-2.492-0.533-3.897 0-1.347 0.158-2.694 0.524-3.88 0.382-1.25 0.914-2.281 1.662-3.223 0.748-0.881 1.661-1.596 2.695-2.105l0.049-0.022c0.997-0.454 2.127-0.723 3.407-0.779 0.865-0.049 1.612 0 2.195 0.097l0.79 0.162c0 0.057 0.058 0.057 0.1 0.057 0.039 0.036 0.090 0.058 0.147 0.058 0.006 0 0.012-0 0.019-0.001l-0.001 0c0.108 0 0.225 0.065 0.225 0.065 0.316 0.082 0.691 0.244 0.998 0.407 1.080 0.511 1.994 1.193 2.743 2.135zM52.855 10.74c-0.375 0.626-0.64 1.413-0.849 2.225l0.008 0.008c-0.213 0.818-0.273 1.73-0.33 2.612l-0.002 0.035c0 0.933 0.051 1.866 0.266 2.694 0.217 0.836 0.482 1.559 0.857 2.176 0.374 0.633 0.856 1.096 1.387 1.462 0.541 0.357 1.181 0.519 1.887 0.519 0.691 0 1.339-0.155 1.87-0.519 0.562-0.379 1.025-0.862 1.369-1.425l0.011-0.020c0.374-0.634 0.648-1.356 0.857-2.193 0.165-0.828 0.282-1.761 0.282-2.694v-0.31c0-0.933-0.117-1.769-0.332-2.597-0.217-0.828-0.482-1.502-0.857-2.126-0.35-0.558-0.794-1.023-1.314-1.386l-0.015-0.010c-0.54-0.365-1.13-0.511-1.829-0.511-0.706 0-1.338 0.202-1.869 0.568-0.541 0.357-1.022 0.877-1.397 1.494zM40.22 5.715h4.488v20.092h-4.488v-20.092z"></path>
<path d="M42.33 1.032h0c1.137 0.004 2.057 0.927 2.057 2.064 0 0.002 0 0.004 0 0.005v-0c0 0.001 0 0.003 0 0.004 0 1.138-0.92 2.060-2.057 2.064-1.137 0.051-2.058-0.869-2.058-2.069v0c0-0.002 0-0.004 0-0.005 0-1.138 0.921-2.061 2.058-2.064zM15.407 9.469c-0.741-0.96-1.646-1.656-2.716-2.178-0.305-0.165-0.675-0.331-0.988-0.414 0 0-0.116-0.066-0.222-0.066-0.050 0-0.099 0-0.165-0.058-0.041 0-0.098 0-0.098-0.058l-0.782-0.165c-0.576-0.099-1.317-0.15-2.172-0.099-1.269 0.058-2.388 0.33-3.375 0.795l-0.047 0.022c-1.027 0.521-1.931 1.25-2.669 2.145-0.741 0.96-1.268 2.012-1.646 3.287-0.361 1.209-0.526 2.583-0.526 3.956 0 1.433 0.165 2.757 0.535 3.974 0.379 1.267 0.905 2.317 1.646 3.228l0.011 0.013c0.516 0.61 1.111 1.151 1.8 1.626l-0.019-0.013c0.28 0.199 0.576 0.375 0.925 0.543h0.041c0 0 0.058 0 0.058 0.050 0.050 0.058 0.050 0.058 0.098 0.058 0.536 0.265 1.12 0.414 1.754 0.531 1.851 0.363 3.441 0.107 3.441 0.107 0.847-0.107 1.645-0.373 2.387-0.696l0.047-0.021c1.049-0.509 1.969-1.24 2.71-2.148 0.74-0.894 1.268-2.011 1.646-3.228 0.361-1.217 0.526-2.541 0.526-3.973 0-1.423-0.165-2.748-0.535-3.973l-0.017 0.033c-0.379-1.217-0.905-2.318-1.646-3.278zM37.144 12.745c-0.378-1.217-0.905-2.317-1.645-3.278-0.741-0.96-1.646-1.655-2.716-2.177-0.283-0.161-0.61-0.301-0.954-0.404l-0.034-0.009s-0.116-0.067-0.222-0.067c-0.050 0-0.107 0-0.165-0.058-0.050 0-0.099 0-0.099-0.058l-0.79-0.165c-0.459-0.077-0.987-0.121-1.526-0.121-0.225 0-0.448 0.008-0.669 0.023l0.030-0.002c-1.268 0.059-2.387 0.331-3.374 0.795-1.074 0.544-1.979 1.274-2.704 2.155l-0.011 0.014c-0.741 0.96-1.268 2.012-1.646 3.287-0.361 1.208-0.526 2.583-0.526 3.957 0 1.432 0.165 2.756 0.535 3.973 0.387 1.234 0.948 2.307 1.666 3.254l-0.019-0.026c0.525 0.626 1.12 1.167 1.781 1.62l0.030 0.019c0.313 0.216 0.947 0.53 0.947 0.53s0.050 0 0.050 0.050c0.035 0 0.052 0.018 0.066 0.032 0.013 0.013 0.026 0.027 0.049 0.027 0.535 0.264 1.112 0.413 1.754 0.53 1.852 0.363 3.439 0.107 3.439 0.107 0.849-0.107 1.646-0.372 2.388-0.696 1.094-0.531 2.014-1.262 2.745-2.154l0.011-0.014c0.741-0.895 1.269-2.013 1.646-3.229 0.362-1.217 0.519-2.541 0.519-3.974 0-1.422-0.206-2.747-0.526-3.972l-0.026 0.033zM24.741 13.905c0.214-0.828 0.477-1.631 0.847-2.269 0.371-0.63 0.847-1.158 1.374-1.523 0.513-0.363 1.152-0.58 1.842-0.58 0.003 0 0.007 0 0.010 0h-0.001c0.692 0 1.276 0.15 1.812 0.522 0.526 0.364 0.947 0.828 1.316 1.423 0.372 0.637 0.634 1.324 0.849 2.168 0.222 0.845 0.329 1.698 0.329 2.65v0.315c0 0.952-0.107 1.903-0.264 2.748-0.214 0.853-0.477 1.59-0.846 2.235-0.356 0.593-0.819 1.085-1.368 1.463l-0.016 0.010c-0.526 0.373-1.153 0.531-1.852 0.531-0.692 0-1.317-0.165-1.852-0.531-0.568-0.389-1.032-0.888-1.372-1.468l-0.012-0.021c-0.379-0.63-0.642-1.366-0.857-2.218-0.204-0.844-0.262-1.796-0.262-2.748 0.058-0.91 0.165-1.854 0.329-2.698l-0.008-0.008zM4.708 13.905c0.206-0.828 0.469-1.631 0.839-2.269 0.371-0.63 0.847-1.158 1.383-1.523 0.507-0.363 1.141-0.58 1.825-0.58 0.010 0 0.019 0 0.029 0h-0.001c0.692 0 1.275 0.15 1.811 0.522 0.518 0.364 0.947 0.828 1.316 1.423 0.372 0.637 0.634 1.324 0.849 2.168 0.214 0.845 0.329 1.698 0.329 2.65l-0.017 0.315c0 0.952-0.099 1.903-0.264 2.748-0.205 0.853-0.477 1.59-0.846 2.235-0.35 0.593-0.808 1.085-1.352 1.463l-0.015 0.010c-0.526 0.373-1.17 0.531-1.852 0.531-0.7 0-1.334-0.165-1.868-0.531-0.563-0.392-1.024-0.89-1.363-1.468l-0.012-0.022c-0.329-0.521-0.576-1.258-0.798-2.152-0.215-0.853-0.271-1.821-0.271-2.764 0-0.952 0.057-1.905 0.263-2.749l0.017-0.008z"></path>
</symbol>
<symbol id="circle-icon" viewBox="0 0 32 32">
<path fill="none" stroke="#fff" style="stroke: var(--color1, #fff)" stroke-linejoin="miter" stroke-linecap="butt" stroke-miterlimit="4" stroke-width="3.2" d="M30.4 16c0 7.953-6.447 14.4-14.4 14.4s-14.4-6.447-14.4-14.4v0c0-7.953 6.447-14.4 14.4-14.4s14.4 6.447 14.4 14.4v0z"></path>
</symbol>
</defs>
</svg>
